# xmcd
#
# Track frame offsets: 
#        150
#        19434
#        44936
#        63550
#        85003
#        106882
#        133101
#        155895
#        180830
#        195935
#        216769
#        240695
#        261275
#        285518
#        310816
#        338556
#
# Disc length: 4775 seconds
#
# Revision: 2
# Processed by: cddbd v1.5.2PL0 Copyright (c) Steve Scherf et al.
# Submitted via: ExactAudioCopy v1.3
#
DISCID=e612a510
DTITLE=Various Artist - Akella Presents - Blues-Rock - vol.21  CD1  N
DTITLE=ew!
DYEAR=2013
DGENRE=Rock
TTITLE0=LARRY MILLER - Road Runner
TTITLE1=GLENN HUGHES - The Boy Can Sing The Blues
TTITLE2=MICHAEL LEE FIRKINS - Black Betty
TTITLE3=MEZCALEROS - My Life Is Burning
TTITLE4=HARDBONE - Fat Cat
TTITLE5=WES JEANS - Somebody
TTITLE6=DIRTY DAVE OSTI - Dirtshack
TTITLE7=FERNANDO NORONHA and BLACK SOUL - White Trash
TTITLE8=SIDEBURN - Rip It Up
TTITLE9=SCOTTY MEYER - Let It Go
TTITLE10=BOOGIE STUFF - Missing you
TTITLE11=WALTER TROUT - Sanjay
TTITLE12=JULIAN SAS - Morning Rain
TTITLE13=RHINO BUCKET - Dog Don't Bite
TTITLE14=BLUES BOYZ - Murdered By Live
TTITLE15=BRYCE JANEY - Funky Guitar Blues
EXTD=
EXTT0=
EXTT1=
EXTT2=
EXTT3=
EXTT4=
EXTT5=
EXTT6=
EXTT7=
EXTT8=
EXTT9=
EXTT10=
EXTT11=
EXTT12=
EXTT13=
EXTT14=
EXTT15=
PLAYORDER=
